<!-- Generated by IcoMoon.io -->
<svg version="1.1" xmlns="http://www.w3.org/2000/svg" width="64" height="64" viewBox="0 0 64 64">
<path fill="currentColor" d="M6.363 21.896c-0.629 0.491-1.029 1.251-1.029 2.104v29.333c0 2.208 0.899 4.213 2.344 5.656s3.448 2.344 5.656 2.344h37.333c2.208 0 4.213-0.899 5.656-2.344s2.344-3.448 2.344-5.656v-29.333c-0.003-0.8-0.357-1.581-1.029-2.104l-24-18.667c-0.955-0.733-2.296-0.76-3.275 0zM42.667 56v-24c0-1.472-1.195-2.667-2.667-2.667h-16c-1.472 0-2.667 1.195-2.667 2.667v24h-8c-0.736 0-1.4-0.296-1.885-0.781s-0.781-1.149-0.781-1.885v-28.029l21.333-16.592 21.333 16.592v28.029c0 0.736-0.296 1.4-0.781 1.885s-1.149 0.781-1.885 0.781zM26.667 56v-21.333h10.667v21.333z"></path>
</svg>
