<!-- Generated by IcoMoon.io -->
<svg version="1.1" xmlns="http://www.w3.org/2000/svg" width="64" height="64" viewBox="0 0 64 64">
<path fill="currentColor" d="M37.333 32c0-1.472-0.6-2.808-1.563-3.771s-2.299-1.563-3.771-1.563-2.808 0.6-3.771 1.563-1.563 2.299-1.563 3.771 0.6 2.808 1.563 3.771 2.299 1.563 3.771 1.563 2.808-0.6 3.771-1.563 1.563-2.299 1.563-3.771zM56 32c0-1.472-0.6-2.808-1.563-3.771s-2.299-1.563-3.771-1.563-2.808 0.6-3.771 1.563-1.563 2.299-1.563 3.771 0.6 2.808 1.563 3.771 2.299 1.563 3.771 1.563 2.808-0.6 3.771-1.563 1.563-2.299 1.563-3.771zM18.667 32c0-1.472-0.6-2.808-1.563-3.771s-2.299-1.563-3.771-1.563-2.808 0.6-3.771 1.563-1.563 2.299-1.563 3.771 0.6 2.808 1.563 3.771 2.299 1.563 3.771 1.563 2.808-0.6 3.771-1.563 1.563-2.299 1.563-3.771z"></path>
</svg>
