<!-- Generated by IcoMoon.io -->
<svg version="1.1" xmlns="http://www.w3.org/2000/svg" width="64" height="64" viewBox="0 0 64 64">
<path fill="currentColor" d="M42.667 32c0-2.944-1.197-5.616-3.125-7.541s-4.597-3.125-7.541-3.125-5.616 1.197-7.541 3.125-3.125 4.597-3.125 7.541 1.197 5.616 3.125 7.541 4.597 3.125 7.541 3.125 5.616-1.197 7.541-3.125 3.125-4.597 3.125-7.541zM37.333 32c0 1.475-0.595 2.803-1.563 3.771s-2.296 1.563-3.771 1.563-2.803-0.595-3.771-1.563-1.563-2.296-1.563-3.771 0.595-2.803 1.563-3.771 2.296-1.563 3.771-1.563 2.803 0.595 3.771 1.563 1.563 2.296 1.563 3.771zM54.173 41.077c0.123-0.28 0.299-0.509 0.512-0.685 0.299-0.245 0.669-0.389 1.075-0.392h0.24c2.208 0 4.213-0.899 5.656-2.344s2.344-3.448 2.344-5.656-0.899-4.213-2.344-5.656-3.448-2.344-5.656-2.344h-0.424c-0.293-0.003-0.573-0.075-0.821-0.203-0.339-0.176-0.613-0.459-0.779-0.832-0.008-0.077-0.011-0.157-0.011-0.237-0.064-0.147-0.107-0.296-0.131-0.448 0.053-0.891 0.205-1.211 0.448-1.459l0.165-0.165c1.56-1.563 2.341-3.616 2.339-5.659s-0.784-4.096-2.349-5.659c-1.563-1.56-3.616-2.341-5.659-2.339s-4.096 0.784-5.653 2.344l-0.123 0.123c-0.221 0.213-0.488 0.363-0.768 0.443-0.373 0.104-0.776 0.085-1.168-0.088-0.269-0.117-0.499-0.293-0.675-0.507-0.245-0.299-0.389-0.669-0.392-1.075v-0.24c0-2.208-0.899-4.213-2.344-5.656s-3.448-2.344-5.656-2.344-4.213 0.899-5.656 2.344-2.344 3.448-2.344 5.656v0.424c-0.003 0.293-0.075 0.573-0.203 0.821-0.176 0.339-0.459 0.613-0.832 0.779-0.077 0.008-0.157 0.011-0.237 0.011-0.147 0.064-0.296 0.107-0.448 0.131-0.893-0.056-1.213-0.208-1.461-0.451l-0.165-0.165c-1.563-1.56-3.613-2.341-5.659-2.341s-4.093 0.784-5.659 2.352c-1.56 1.563-2.341 3.613-2.341 5.659s0.784 4.096 2.344 5.653l0.128 0.125c0.213 0.221 0.363 0.488 0.443 0.768 0.104 0.373 0.085 0.776-0.083 1.157-0.016 0.043-0.035 0.091-0.056 0.139-0.109 0.291-0.288 0.541-0.509 0.733-0.293 0.253-0.667 0.408-1.021 0.416h-0.24c-2.208 0-4.213 0.899-5.656 2.344s-2.344 3.451-2.344 5.659 0.899 4.213 2.344 5.656 3.448 2.344 5.656 2.344h0.424c0.293 0.003 0.573 0.075 0.821 0.203 0.341 0.179 0.621 0.464 0.789 0.856 0.064 0.147 0.107 0.296 0.131 0.448-0.053 0.891-0.205 1.211-0.448 1.459l-0.165 0.165c-1.56 1.563-2.341 3.616-2.339 5.659s0.784 4.096 2.349 5.659c1.563 1.56 3.616 2.341 5.659 2.339s4.096-0.784 5.653-2.344l0.125-0.128c0.221-0.213 0.488-0.363 0.768-0.443 0.373-0.104 0.776-0.085 1.157 0.083 0.043 0.016 0.091 0.035 0.139 0.056 0.291 0.109 0.541 0.288 0.733 0.509 0.253 0.293 0.408 0.667 0.416 1.021v0.245c0 2.208 0.899 4.213 2.344 5.656s3.448 2.344 5.656 2.344 4.213-0.899 5.656-2.344 2.344-3.448 2.344-5.656v-0.424c0.003-0.293 0.075-0.573 0.203-0.821 0.179-0.341 0.464-0.621 0.856-0.789 0.147-0.064 0.296-0.107 0.448-0.131 0.891 0.053 1.211 0.205 1.459 0.448l0.165 0.165c1.563 1.56 3.616 2.341 5.659 2.339s4.096-0.784 5.659-2.349c1.56-1.563 2.341-3.616 2.339-5.659s-0.784-4.096-2.344-5.653l-0.128-0.125c-0.213-0.221-0.363-0.488-0.443-0.768-0.104-0.373-0.085-0.776 0.083-1.157zM49.056 24.805c-0.032-0.536-0.101-0.792-0.203-1.019v0.213c0 0.115 0.008 0.224 0.021 0.333 0.056 0.16 0.115 0.317 0.181 0.472 0.011 0.24 0.013 0.243 0.013 0.245 0.664 1.549 1.824 2.747 3.221 3.475 0.989 0.515 2.093 0.795 3.229 0.808h0.48c0.736 0 1.4 0.296 1.885 0.781s0.781 1.149 0.781 1.885-0.296 1.4-0.781 1.885-1.149 0.781-1.885 0.781h-0.24c-1.699 0.008-3.253 0.608-4.467 1.608-0.861 0.709-1.549 1.619-2 2.648-0.685 1.552-0.768 3.227-0.339 4.752 0.317 1.128 0.909 2.171 1.739 3.029l0.192 0.195c0.523 0.523 0.784 1.2 0.784 1.885s-0.259 1.365-0.779 1.885c-0.525 0.525-1.203 0.787-1.891 0.787s-1.365-0.259-1.885-0.779l-0.163-0.163c-1.235-1.208-2.773-1.872-4.352-2.005-1.165-0.099-2.352 0.091-3.448 0.565-1.541 0.661-2.739 1.821-3.467 3.216-0.515 0.989-0.795 2.093-0.808 3.229v0.483c0 0.736-0.296 1.4-0.781 1.885s-1.147 0.779-1.883 0.779-1.4-0.296-1.885-0.781-0.781-1.149-0.781-1.885v-0.24c-0.040-1.76-0.68-3.312-1.717-4.512-0.757-0.875-1.723-1.56-2.821-1.984-1.533-0.659-3.181-0.731-4.683-0.309-1.128 0.317-2.171 0.909-3.029 1.739l-0.195 0.192c-0.523 0.523-1.2 0.784-1.885 0.784s-1.365-0.259-1.885-0.779c-0.525-0.525-0.787-1.203-0.787-1.891s0.259-1.365 0.779-1.885l0.163-0.163c1.208-1.235 1.872-2.773 2.005-4.352 0.099-1.165-0.091-2.352-0.565-3.448-0.661-1.541-1.821-2.739-3.216-3.467-0.989-0.515-2.093-0.795-3.229-0.808l-0.48 0.003c-0.736 0-1.4-0.296-1.885-0.781s-0.781-1.149-0.781-1.885 0.296-1.4 0.781-1.885 1.149-0.781 1.885-0.781h0.24c1.76-0.040 3.312-0.68 4.512-1.717 0.875-0.757 1.56-1.723 1.984-2.821 0.659-1.533 0.731-3.181 0.309-4.683-0.317-1.128-0.909-2.171-1.739-3.029l-0.195-0.195c-0.523-0.523-0.784-1.2-0.784-1.885s0.259-1.365 0.779-1.885c0.525-0.525 1.203-0.787 1.891-0.787s1.365 0.259 1.885 0.779l0.163 0.163c1.235 1.208 2.773 1.872 4.352 2.005 0.987 0.085 1.987-0.037 2.936-0.365 0.256-0.032 0.496-0.096 0.709-0.192-0.083 0.003-0.163 0.008-0.237 0.011-0.536 0.032-0.792 0.101-1.019 0.203h0.213c0.115 0 0.224-0.008 0.333-0.021 0.16-0.056 0.317-0.115 0.472-0.181 0.24-0.011 0.243-0.013 0.245-0.013 1.549-0.664 2.747-1.824 3.475-3.221 0.515-0.987 0.795-2.093 0.808-3.227v-0.483c0-0.736 0.296-1.4 0.781-1.885s1.149-0.781 1.885-0.781 1.4 0.296 1.885 0.781 0.781 1.149 0.781 1.885v0.24c0.008 1.699 0.608 3.253 1.608 4.467 0.709 0.861 1.619 1.549 2.656 2.003 1.541 0.68 3.216 0.763 4.741 0.333 1.128-0.317 2.171-0.909 3.029-1.739l0.195-0.192c0.523-0.523 1.2-0.784 1.885-0.784s1.365 0.259 1.885 0.779c0.525 0.525 0.787 1.203 0.787 1.891s-0.259 1.365-0.779 1.885l-0.163 0.163c-1.208 1.235-1.872 2.773-2.005 4.352-0.085 0.987 0.037 1.987 0.365 2.936 0.032 0.253 0.099 0.493 0.192 0.709-0.003-0.085-0.005-0.165-0.011-0.237z"></path>
</svg>
