<!-- Generated by IcoMoon.io -->
<svg version="1.1" xmlns="http://www.w3.org/2000/svg" width="64" height="64" viewBox="0 0 64 64">
<path fill="currentColor" d="M15.2 27.2v-16.8c0-1.325-1.075-2.4-2.4-2.4s-2.4 1.075-2.4 2.4v16.8c0 1.325 1.075 2.4 2.4 2.4s2.4-1.075 2.4-2.4zM34.4 53.6v-21.6c0-1.325-1.075-2.4-2.4-2.4s-2.4 1.075-2.4 2.4v21.6c0 1.325 1.075 2.4 2.4 2.4s2.4-1.075 2.4-2.4zM53.6 32v-21.6c0-1.325-1.075-2.4-2.4-2.4s-2.4 1.075-2.4 2.4v21.6c0 1.325 1.075 2.4 2.4 2.4s2.4-1.075 2.4-2.4zM5.6 39.2h4.8v14.4c0 1.325 1.075 2.4 2.4 2.4s2.4-1.075 2.4-2.4v-14.4h4.8c1.325 0 2.4-1.075 2.4-2.4s-1.075-2.4-2.4-2.4h-14.4c-1.325 0-2.4 1.075-2.4 2.4s1.075 2.4 2.4 2.4zM24.8 24.8h14.4c1.325 0 2.4-1.075 2.4-2.4s-1.075-2.4-2.4-2.4h-4.8v-9.6c0-1.325-1.075-2.4-2.4-2.4s-2.4 1.075-2.4 2.4v9.6h-4.8c-1.325 0-2.4 1.075-2.4 2.4s1.075 2.4 2.4 2.4zM44 44h4.8v9.6c0 1.325 1.075 2.4 2.4 2.4s2.4-1.075 2.4-2.4v-9.6h4.8c1.325 0 2.4-1.075 2.4-2.4s-1.075-2.4-2.4-2.4h-14.4c-1.325 0-2.4 1.075-2.4 2.4s1.075 2.4 2.4 2.4z"></path>
</svg>
